<svg width="20" height="24" viewBox="0 0 20 24" fill="none" xmlns="http://www.w3.org/2000/svg">
<g id="Frame">
<path id="Vector" d="M19.6696 12.8156C19.8795 12.6047 20 12.3094 20 12C20 11.6906 19.8795 11.4 19.6696 11.1844L11.8125 3.30937C11.3839 2.87812 10.7054 2.89687 10.2991 3.34687C9.89286 3.79687 9.90625 4.50937 10.3348 4.93593L16.2545 10.875H1.07143C0.477679 10.875 0 11.3766 0 12C0 12.6234 0.477679 13.125 1.07143 13.125H16.2545L10.3304 19.0594C9.90179 19.4906 9.88839 20.1984 10.2946 20.6484C10.7009 21.0984 11.3795 21.1125 11.808 20.6859L19.6652 12.8109L19.6696 12.8156Z" fill="white"/>
</g>
</svg>
