<svg width="12" height="14" viewBox="0 0 12 14" fill="none" xmlns="http://www.w3.org/2000/svg">
<g id="Frame" clip-path="url(#clip0_69_355)">
<path id="Vector" d="M3 0C3.23571 0 3.42857 0.196875 3.42857 0.4375V1.75H8.57143V0.4375C8.57143 0.196875 8.76429 0 9 0C9.23571 0 9.42857 0.196875 9.42857 0.4375V1.75H10.2857C11.2312 1.75 12 2.53477 12 3.5V4.375V5.25V12.25C12 13.2152 11.2312 14 10.2857 14H1.71429C0.76875 14 0 13.2152 0 12.25V5.25V4.375V3.5C0 2.53477 0.76875 1.75 1.71429 1.75H2.57143V0.4375C2.57143 0.196875 2.76429 0 3 0ZM11.1429 5.25H0.857143V12.25C0.857143 12.734 1.24018 13.125 1.71429 13.125H10.2857C10.7598 13.125 11.1429 12.734 11.1429 12.25V5.25ZM10.2857 2.625H1.71429C1.24018 2.625 0.857143 3.01602 0.857143 3.5V4.375H11.1429V3.5C11.1429 3.01602 10.7598 2.625 10.2857 2.625Z" fill="#7B7B7B"/>
</g>
<defs>
<clipPath id="clip0_69_355">
<rect width="12" height="14" fill="white"/>
</clipPath>
</defs>
</svg>
