<svg width="12" height="12" viewBox="0 0 12 12" fill="none" xmlns="http://www.w3.org/2000/svg">
<g id="Frame">
<path id="Vector" d="M2.64863 10.1484L6.39863 6.39839C6.61895 6.17808 6.61895 5.82183 6.39863 5.60386L2.64863 1.85151C2.42832 1.6312 2.07207 1.6312 1.8541 1.85151C1.63613 2.07183 1.63379 2.42808 1.8541 2.64604L5.20566 5.99761L1.85176 9.35151C1.63145 9.57183 1.63145 9.92808 1.85176 10.146C2.07207 10.364 2.42832 10.3664 2.64629 10.146L2.64863 10.1484ZM7.14863 10.1484L10.8986 6.39839C11.1189 6.17808 11.1189 5.82183 10.8986 5.60386L7.14863 1.85151C6.92832 1.6312 6.57207 1.6312 6.3541 1.85151C6.13613 2.07183 6.13379 2.42808 6.3541 2.64604L9.70566 5.99761L6.35176 9.35151C6.13145 9.57183 6.13145 9.92808 6.35176 10.146C6.57207 10.364 6.92832 10.3664 7.14629 10.146L7.14863 10.1484Z" fill="black"/>
</g>
</svg>
