<svg width="12" height="12" viewBox="0 0 12 12" fill="none" xmlns="http://www.w3.org/2000/svg">
<g id="Frame">
<path id="Vector" d="M9.35137 1.85161L5.60137 5.60161C5.38105 5.82192 5.38105 6.17817 5.60137 6.39614L9.35137 10.1485C9.57168 10.3688 9.92793 10.3688 10.1459 10.1485C10.3639 9.92817 10.3662 9.57192 10.1459 9.35396L6.79434 6.00239L10.1482 2.64849C10.3686 2.42817 10.3686 2.07192 10.1482 1.85396C9.92793 1.63599 9.57168 1.63364 9.35371 1.85396L9.35137 1.85161ZM4.85137 1.85161L1.10137 5.60161C0.881055 5.82192 0.881055 6.17817 1.10137 6.39614L4.85137 10.1485C5.07168 10.3688 5.42793 10.3688 5.6459 10.1485C5.86387 9.92817 5.86621 9.57192 5.6459 9.35396L2.29434 6.00239L5.64824 2.64849C5.86855 2.42817 5.86855 2.07192 5.64824 1.85396C5.42793 1.63599 5.07168 1.63364 4.85371 1.85396L4.85137 1.85161Z" fill="black"/>
</g>
</svg>
