<svg width="14" height="14" viewBox="0 0 14 14" fill="none" xmlns="http://www.w3.org/2000/svg">
<g id="Frame" clip-path="url(#clip0_53_891)">
<path id="Vector" d="M12.6875 7C12.6875 5.49158 12.0883 4.04494 11.0217 2.97833C9.95506 1.91172 8.50842 1.3125 7 1.3125C5.49158 1.3125 4.04494 1.91172 2.97833 2.97833C1.91172 4.04494 1.3125 5.49158 1.3125 7C1.3125 8.50842 1.91172 9.95506 2.97833 11.0217C4.04494 12.0883 5.49158 12.6875 7 12.6875C8.50842 12.6875 9.95506 12.0883 11.0217 11.0217C12.0883 9.95506 12.6875 8.50842 12.6875 7ZM0 7C0 5.14348 0.737498 3.36301 2.05025 2.05025C3.36301 0.737498 5.14348 0 7 0C8.85652 0 10.637 0.737498 11.9497 2.05025C13.2625 3.36301 14 5.14348 14 7C14 8.85652 13.2625 10.637 11.9497 11.9497C10.637 13.2625 8.85652 14 7 14C5.14348 14 3.36301 13.2625 2.05025 11.9497C0.737498 10.637 0 8.85652 0 7ZM5.14883 4.02227C5.35664 3.90742 5.6082 3.91016 5.81328 4.03594L9.75078 6.44219C9.94492 6.5625 10.0652 6.77305 10.0652 7.00273C10.0652 7.23242 9.94492 7.44297 9.75078 7.56328L5.81328 9.96953C5.61094 10.0926 5.35664 10.098 5.14883 9.9832C4.94102 9.86836 4.8125 9.64961 4.8125 9.41172V4.59375C4.8125 4.35586 4.94102 4.13711 5.14883 4.02227Z" fill="#7B7B7B"/>
</g>
<defs>
<clipPath id="clip0_53_891">
<rect width="14" height="14" fill="white"/>
</clipPath>
</defs>
</svg>
