<svg width="24" height="25" viewBox="0 0 24 25" fill="none" xmlns="http://www.w3.org/2000/svg">
<g id="Frame" clip-path="url(#clip0_70_1412)">
<path id="Vector" d="M17.25 10.25C17.25 8.26088 16.4598 6.35322 15.0533 4.9467C13.6468 3.54018 11.7391 2.75 9.75 2.75C7.76088 2.75 5.85322 3.54018 4.4467 4.9467C3.04018 6.35322 2.25 8.26088 2.25 10.25C2.25 12.2391 3.04018 14.1468 4.4467 15.5533C5.85322 16.9598 7.76088 17.75 9.75 17.75C11.7391 17.75 13.6468 16.9598 15.0533 15.5533C16.4598 14.1468 17.25 12.2391 17.25 10.25ZM15.8016 17.8953C14.1422 19.2125 12.0375 20 9.75 20C4.36406 20 0 15.6359 0 10.25C0 4.86406 4.36406 0.5 9.75 0.5C15.1359 0.5 19.5 4.86406 19.5 10.25C19.5 12.5375 18.7125 14.6422 17.3953 16.3016L23.6719 22.5781C24.1125 23.0187 24.1125 23.7312 23.6719 24.1672C23.2313 24.6031 22.5188 24.6078 22.0828 24.1672L15.8016 17.8953Z" fill="#2D4998"/>
</g>
<defs>
<clipPath id="clip0_70_1412">
<rect width="24" height="24" fill="white" transform="translate(0 0.5)"/>
</clipPath>
</defs>
</svg>
