<svg width="14" height="14" viewBox="0 0 14 14" fill="none" xmlns="http://www.w3.org/2000/svg">
<g id="Frame" clip-path="url(#clip0_70_1002)">
<path id="Vector" d="M8.09375 4.37494C8.45742 4.37494 8.75 4.08236 8.75 3.71869V3.49994V3.06244V1.74994L13.125 5.68744L8.75 9.62494V8.31244V7.87494V7.65619C8.75 7.29252 8.45742 6.99994 8.09375 6.99994H7.875H5.25C3.3168 6.99994 1.75 8.56674 1.75 10.4999C1.75 10.7269 1.76914 10.9402 1.80469 11.1343C1.30977 10.4917 0.875 9.57299 0.875 8.31244C0.875 6.13861 2.63867 4.37494 4.8125 4.37494H7.875H8.09375ZM7.875 8.31244V8.74994V9.62494C7.875 9.96947 8.07734 10.2839 8.39453 10.4234C8.71172 10.5628 9.07812 10.5054 9.33516 10.2757L13.7102 6.33822C13.8934 6.17142 14 5.93627 14 5.68744C14 5.43861 13.8961 5.20346 13.7102 5.03666L9.33516 1.09916C9.07812 0.866737 8.70898 0.809316 8.39453 0.951503C8.08008 1.09369 7.875 1.40541 7.875 1.74994V2.62494V3.06244V3.49994H7H4.8125C2.15469 3.49994 0 5.65463 0 8.31244C0 11.4105 2.22852 12.7941 2.73984 13.073C2.8082 13.1113 2.88477 13.1249 2.96133 13.1249C3.25938 13.1249 3.5 12.8816 3.5 12.5863C3.5 12.3812 3.38242 12.1925 3.23203 12.0531C2.975 11.8097 2.625 11.3312 2.625 10.4999C2.625 9.05072 3.80078 7.87494 5.25 7.87494H7H7.875V8.31244Z" fill="#2D4998"/>
</g>
<defs>
<clipPath id="clip0_70_1002">
<rect width="14" height="14" fill="white"/>
</clipPath>
</defs>
</svg>
