<svg width="16" height="14" viewBox="0 0 16 14" fill="none" xmlns="http://www.w3.org/2000/svg">
<g id="Frame" clip-path="url(#clip0_55_1697)">
<path id="Vector" d="M4.21118 1.15938C4.04173 0.978906 3.80562 0.875 3.55562 0.875C3.30562 0.875 3.06951 0.978906 2.90007 1.15938L0.455623 3.78437C0.125068 4.13984 0.14729 4.69492 0.511179 5.02031C0.875068 5.3457 1.43618 5.32383 1.76673 4.96563L2.66673 4.00039V12.25C2.66673 12.734 3.06396 13.125 3.55562 13.125C4.04729 13.125 4.44451 12.734 4.44451 12.25V4.00039L5.34451 4.96836C5.67507 5.32383 6.23896 5.34844 6.60007 5.02305C6.96118 4.69766 6.98618 4.14258 6.65562 3.78711L4.21118 1.16211V1.15938ZM8.88896 13.125H9.77785C10.2695 13.125 10.6667 12.734 10.6667 12.25C10.6667 11.766 10.2695 11.375 9.77785 11.375H8.88896C8.39729 11.375 8.00007 11.766 8.00007 12.25C8.00007 12.734 8.39729 13.125 8.88896 13.125ZM8.88896 9.625H11.5556C12.0473 9.625 12.4445 9.23398 12.4445 8.75C12.4445 8.26602 12.0473 7.875 11.5556 7.875H8.88896C8.39729 7.875 8.00007 8.26602 8.00007 8.75C8.00007 9.23398 8.39729 9.625 8.88896 9.625ZM8.88896 6.125H13.3334C13.8251 6.125 14.2223 5.73398 14.2223 5.25C14.2223 4.76602 13.8251 4.375 13.3334 4.375H8.88896C8.39729 4.375 8.00007 4.76602 8.00007 5.25C8.00007 5.73398 8.39729 6.125 8.88896 6.125ZM8.88896 2.625H15.1112C15.6028 2.625 16.0001 2.23398 16.0001 1.75C16.0001 1.26602 15.6028 0.875 15.1112 0.875H8.88896C8.39729 0.875 8.00007 1.26602 8.00007 1.75C8.00007 2.23398 8.39729 2.625 8.88896 2.625Z" fill="#7B7B7B"/>
</g>
<defs>
<clipPath id="clip0_55_1697">
<rect width="16" height="14" fill="white"/>
</clipPath>
</defs>
</svg>
