<svg width="18" height="18" viewBox="0 0 18 18" fill="none" xmlns="http://www.w3.org/2000/svg">
<g id="Frame" clip-path="url(#clip0_10_682)">
<path id="Vector" d="M13.2117 9.67509C12.6352 9.429 11.9672 9.59072 11.5699 10.0759L10.4027 11.5032C8.78555 10.5645 7.43555 9.21455 6.49687 7.59736L7.9207 6.43369C8.40586 6.03642 8.57109 5.36845 8.32148 4.79189L6.63398 0.85439C6.37031 0.23564 5.70586 -0.108892 5.04844 0.0317334L1.11094 0.875483C0.464062 1.01259 0 1.58564 0 2.25009C0 10.5716 6.45117 17.3849 14.625 17.9614C14.7832 17.972 14.9449 17.9825 15.1066 17.9895C15.1066 17.9895 15.1066 17.9895 15.1102 17.9895C15.3246 17.9966 15.5355 18.0036 15.7535 18.0036C16.418 18.0036 16.991 17.5395 17.1281 16.8927L17.9719 12.9552C18.1125 12.2977 17.768 11.6333 17.1492 11.3696L13.2117 9.68212V9.67509ZM15.7395 16.8751C7.66758 16.8681 1.125 10.3255 1.125 2.25009C1.125 2.1165 1.21641 2.004 1.34648 1.97587L5.28398 1.13212C5.41406 1.104 5.54766 1.17431 5.60039 1.29736L7.28789 5.23486C7.33711 5.35087 7.30547 5.48447 7.20703 5.56181L5.77969 6.729C5.3543 7.07704 5.2418 7.68525 5.51953 8.16337C6.55664 9.95283 8.04727 11.4434 9.8332 12.477C10.3113 12.7548 10.9195 12.6423 11.2676 12.2169L12.4348 10.7895C12.5156 10.6911 12.6492 10.6595 12.7617 10.7087L16.6992 12.3962C16.8223 12.4489 16.8926 12.5825 16.8645 12.7126L16.0207 16.6501C15.9926 16.7802 15.8766 16.8716 15.7465 16.8716C15.743 16.8716 15.7395 16.8716 15.7359 16.8716L15.7395 16.8751Z" fill="#2D4998"/>
</g>
<defs>
<clipPath id="clip0_10_682">
<rect width="18" height="18" fill="white"/>
</clipPath>
</defs>
</svg>
