<svg width="14" height="14" viewBox="0 0 14 14" fill="none" xmlns="http://www.w3.org/2000/svg">
<g id="Frame" clip-path="url(#clip0_70_994)">
<path id="Vector" d="M6.99983 1.75C3.43968 1.75 0.874834 4.06328 0.874834 6.5625C0.874834 7.57695 1.29866 8.49297 1.96858 9.29688C2.11077 9.46914 2.19827 9.70156 2.17093 9.95039C2.08616 10.6887 1.85921 11.3859 1.46819 12.0367C1.45452 12.0613 1.43812 12.0859 1.42444 12.1078C1.72796 12.0285 2.03148 11.9164 2.31858 11.7934C2.78343 11.591 3.22093 11.3367 3.64202 11.0441C3.87444 10.8828 4.17249 10.8391 4.44046 10.9293C5.27718 11.2137 6.12483 11.375 6.99983 11.375C10.56 11.375 13.1248 9.06172 13.1248 6.5625C13.1248 4.06328 10.56 1.75 6.99983 1.75ZM-0.000165681 6.5625C-0.000165681 3.42344 3.13069 0.875 6.99983 0.875C10.869 0.875 13.9998 3.42344 13.9998 6.5625C13.9998 9.70156 10.869 12.25 6.99983 12.25C6.01546 12.25 5.0721 12.0668 4.16155 11.7605C4.15608 11.7578 4.14788 11.7605 4.14241 11.7633C3.6803 12.0832 3.19358 12.3676 2.66858 12.5973C2.01233 12.8816 1.2221 13.125 0.437334 13.125C0.2596 13.125 0.101006 13.0184 0.0326468 12.857C-0.0357126 12.6957 0.00256869 12.507 0.125616 12.3812C0.3471 12.157 0.541241 11.8836 0.718975 11.5883C1.0389 11.0523 1.2303 10.4781 1.3014 9.86289C1.3014 9.86289 1.29866 9.86016 1.29866 9.85742C0.535772 8.94414 -0.000165681 7.83672 -0.000165681 6.5625Z" fill="#7B7B7B"/>
</g>
<defs>
<clipPath id="clip0_70_994">
<rect width="14" height="14" fill="white"/>
</clipPath>
</defs>
</svg>
