<svg width="12" height="12" viewBox="0 0 12 12" fill="none" xmlns="http://www.w3.org/2000/svg">
<g id="Frame" clip-path="url(#clip0_10_715)">
<path id="Vector" d="M10.8984 5.60147C11.1188 5.82178 11.1188 6.17803 10.8984 6.396L6.39845 10.8983C6.17814 11.1187 5.82189 11.1187 5.60392 10.8983C5.38595 10.678 5.38361 10.3218 5.60392 10.1038L9.70548 6.00225L5.60157 1.89834C5.38126 1.67803 5.38126 1.32178 5.60157 1.10381C5.82189 0.885841 6.17814 0.883497 6.39611 1.10381L10.8984 5.60147ZM1.89845 1.10147L6.39845 5.60147C6.61876 5.82178 6.61876 6.17803 6.39845 6.396L1.89845 10.8983C1.67814 11.1187 1.32189 11.1187 1.10392 10.8983C0.88595 10.678 0.883606 10.3218 1.10392 10.1038L5.20548 6.00225L1.10157 1.89834C0.881262 1.67803 0.881262 1.32178 1.10157 1.10381C1.32189 0.885841 1.67814 0.883497 1.89611 1.10381L1.89845 1.10147Z" fill="#7B7B7B"/>
</g>
<defs>
<clipPath id="clip0_10_715">
<rect width="12" height="12" fill="white"/>
</clipPath>
</defs>
</svg>
