<svg width="32" height="40" viewBox="0 0 32 40" fill="none" xmlns="http://www.w3.org/2000/svg">
<g id="Frame" clip-path="url(#clip0_10_558)">
<path id="Vector" d="M14.0001 8.59558C14.3682 8.59558 14.6667 8.29708 14.6667 7.92889C14.6667 7.56071 14.3682 7.26221 14.0001 7.26221C6.27175 7.27102 0.00887284 13.5339 -3.91366e-07 21.2622V25.2622C-0.0115022 29.3241 3.27187 32.6263 7.33368 32.6379C11.3956 32.6494 14.6977 29.366 14.7094 25.3042C14.7209 21.2423 11.4375 17.9401 7.37568 17.9286C4.97731 17.9218 2.72619 19.0848 1.34406 21.0449C1.4675 14.1406 7.09462 8.60539 14.0001 8.59558Z" fill="#E0E3E6"/>
<path id="Vector_2" d="M24.6667 17.9289C22.2821 17.9308 20.0476 19.0933 18.6774 21.0449C18.8009 14.1406 24.428 8.60533 31.3334 8.59558C31.7016 8.59558 32.0001 8.29708 32.0001 7.92889C32.0001 7.56071 31.7016 7.26221 31.3334 7.26221C23.6051 7.27102 17.3422 13.5339 17.3334 21.2622V25.2622C17.3334 29.3123 20.6166 32.5955 24.6667 32.5955C28.7167 32.5955 32.0001 29.3123 32.0001 25.2622C32.0001 21.2121 28.7168 17.9289 24.6667 17.9289Z" fill="#E0E3E6"/>
</g>
<defs>
<clipPath id="clip0_10_558">
<rect width="32" height="40" fill="white"/>
</clipPath>
</defs>
</svg>
