<svg width="16" height="14" viewBox="0 0 16 14" fill="none" xmlns="http://www.w3.org/2000/svg">
<g id="Frame" clip-path="url(#clip0_55_1996)">
<path id="Vector" d="M6.29177 4.61563L7.99733 1.15664L9.70288 4.61563C9.83066 4.87539 10.0807 5.05586 10.3723 5.09961L14.189 5.65469L11.4168 8.35625C11.2112 8.55586 11.1168 8.84297 11.1668 9.12461L11.8196 12.9391L8.41677 11.148C8.15566 11.0113 7.84177 11.0113 7.57788 11.148L4.17233 12.9391L4.82511 9.12461C4.87233 8.84297 4.78066 8.55859 4.57511 8.35625L1.80566 5.65469L5.62233 5.09961C5.91399 5.05859 6.16399 4.87539 6.29177 4.61563ZM11.8029 13.9207C12.0279 14.0383 12.3001 14.0219 12.5057 13.8742C12.7112 13.7266 12.8168 13.4777 12.7751 13.2316L12.0446 8.97969L15.1334 5.96641C15.314 5.79141 15.3751 5.53164 15.2973 5.29648C15.2196 5.06133 15.0112 4.88906 14.7612 4.85078L10.5029 4.23281L8.59733 0.369141C8.48622 0.142188 8.25288 0 7.99733 0C7.74177 0 7.50844 0.142188 7.39733 0.369141L5.49177 4.23281L1.23622 4.85352C0.986217 4.88906 0.777884 5.06133 0.700106 5.29922C0.622328 5.53711 0.686217 5.79414 0.863995 5.96914L3.95011 8.97969L3.22233 13.2316C3.18066 13.4777 3.28344 13.7266 3.49177 13.8742C3.70011 14.0219 3.97233 14.0383 4.19455 13.9207L8.00011 11.9191L11.8057 13.9207H11.8029Z" fill="#FFBC10"/>
</g>
<defs>
<clipPath id="clip0_55_1996">
<rect width="16" height="14" fill="white"/>
</clipPath>
</defs>
</svg>
