<svg width="14" height="12" viewBox="0 0 14 12" fill="none" xmlns="http://www.w3.org/2000/svg">
<g id="Frame" clip-path="url(#clip0_70_1064)">
<path id="Vector" d="M2.86806 8.74219C1.90069 7.84453 1.21771 6.78047 0.845833 6C1.21771 5.21953 1.90069 4.15781 2.86806 3.25781C3.95208 2.25234 5.33507 1.5 7 1.5C8.66493 1.5 10.0479 2.25234 11.1319 3.25781C12.0993 4.15547 12.7823 5.21953 13.1542 6C12.7823 6.78047 12.0993 7.84219 11.1319 8.74219C10.0479 9.74766 8.66493 10.5 7 10.5C5.33507 10.5 3.95208 9.74766 2.86806 8.74219ZM7 11.25C10.85 11.25 13.2708 7.75078 14 6C13.2708 4.24922 10.85 0.75 7 0.75C3.15 0.75 0.729167 4.24922 0 6C0.729167 7.75078 3.15 11.25 7 11.25ZM4.66667 6C4.66667 5.40326 4.9125 4.83097 5.35008 4.40901C5.78767 3.98705 6.38116 3.75 7 3.75C7.61884 3.75 8.21233 3.98705 8.64992 4.40901C9.0875 4.83097 9.33333 5.40326 9.33333 6C9.33333 6.59674 9.0875 7.16903 8.64992 7.59099C8.21233 8.01295 7.61884 8.25 7 8.25C6.38116 8.25 5.78767 8.01295 5.35008 7.59099C4.9125 7.16903 4.66667 6.59674 4.66667 6ZM10.1111 6C10.1111 5.20435 9.78333 4.44129 9.19989 3.87868C8.61644 3.31607 7.82512 3 7 3C6.17488 3 5.38356 3.31607 4.80011 3.87868C4.21667 4.44129 3.88889 5.20435 3.88889 6C3.88889 6.79565 4.21667 7.55871 4.80011 8.12132C5.38356 8.68393 6.17488 9 7 9C7.82512 9 8.61644 8.68393 9.19989 8.12132C9.78333 7.55871 10.1111 6.79565 10.1111 6Z" fill="#7B7B7B"/>
</g>
<defs>
<clipPath id="clip0_70_1064">
<rect width="14" height="12" fill="white"/>
</clipPath>
</defs>
</svg>
