<svg width="18" height="20" viewBox="0 0 18 20" fill="none" xmlns="http://www.w3.org/2000/svg">
<g id="Frame">
<path id="Vector" d="M15.304 3.79297C13.6205 2.15234 11.3786 1.25 8.99598 1.25C4.07812 1.25 0.0763393 5.14062 0.0763393 9.92188C0.0763393 11.4492 0.486161 12.9414 1.26562 14.2578L0 18.75L4.72902 17.543C6.0308 18.2344 7.49732 18.5977 8.99196 18.5977H8.99598C13.9098 18.5977 18 14.707 18 9.92578C18 7.60938 16.9875 5.43359 15.304 3.79297ZM8.99598 17.1367C7.66205 17.1367 6.35625 16.7891 5.2192 16.1328L4.95 15.9766L2.14554 16.6914L2.89286 14.0312L2.71607 13.7578C1.97277 12.6094 1.58304 11.2852 1.58304 9.92188C1.58304 5.94922 4.90982 2.71484 9 2.71484C10.9808 2.71484 12.8411 3.46484 14.2393 4.82812C15.6375 6.19141 16.4973 8 16.4933 9.92578C16.4933 13.9023 13.0821 17.1367 8.99598 17.1367ZM13.0621 11.7383C12.8411 11.6289 11.7442 11.1055 11.5393 11.0352C11.3344 10.9609 11.1857 10.9258 11.0371 11.1445C10.8884 11.3633 10.4625 11.8477 10.3299 11.9961C10.2013 12.1406 10.0688 12.1602 9.84777 12.0508C8.53795 11.4141 7.67813 10.9141 6.81429 9.47266C6.58527 9.08984 7.0433 9.11719 7.4692 8.28906C7.54152 8.14453 7.50536 8.01953 7.44911 7.91016C7.39286 7.80078 6.94688 6.73438 6.76205 6.30078C6.58125 5.87891 6.39643 5.9375 6.25982 5.92969C6.13125 5.92188 5.98259 5.92188 5.83393 5.92188C5.68527 5.92188 5.4442 5.97656 5.23929 6.19141C5.03437 6.41016 4.45982 6.93359 4.45982 8C4.45982 9.06641 5.25938 10.0977 5.36786 10.2422C5.48036 10.3867 6.93884 12.5742 9.17679 13.5156C10.5911 14.1094 11.1455 14.1602 11.8527 14.0586C12.2826 13.9961 13.1705 13.5352 13.3554 13.0273C13.5402 12.5195 13.5402 12.0859 13.4839 11.9961C13.4317 11.8984 13.283 11.8438 13.0621 11.7383Z" fill="#A5D0F2"/>
</g>
</svg>
