<svg width="18" height="18" viewBox="0 0 18 18" fill="none" xmlns="http://www.w3.org/2000/svg">
<g id="Frame" clip-path="url(#clip0_3_40)">
<path id="Vector" d="M13.2117 9.675C12.6352 9.42891 11.9672 9.59062 11.5699 10.0758L10.4027 11.5031C8.78555 10.5645 7.43555 9.21445 6.49687 7.59727L7.9207 6.43359C8.40586 6.03633 8.57109 5.36836 8.32148 4.7918L6.63398 0.854298C6.37031 0.235548 5.70586 -0.108983 5.04844 0.0316419L1.11094 0.875392C0.464062 1.0125 0 1.58555 0 2.25C0 10.5715 6.45117 17.3848 14.625 17.9613C14.7832 17.9719 14.9449 17.9824 15.1066 17.9895C15.1066 17.9895 15.1066 17.9895 15.1102 17.9895C15.3246 17.9965 15.5355 18.0035 15.7535 18.0035C16.418 18.0035 16.991 17.5395 17.1281 16.8926L17.9719 12.9551C18.1125 12.2977 17.768 11.6332 17.1492 11.3695L13.2117 9.68203V9.675ZM15.7395 16.875C7.66758 16.868 1.125 10.3254 1.125 2.25C1.125 2.11641 1.21641 2.00391 1.34648 1.97578L5.28398 1.13203C5.41406 1.10391 5.54766 1.17422 5.60039 1.29727L7.28789 5.23477C7.33711 5.35078 7.30547 5.48438 7.20703 5.56172L5.77969 6.72891C5.3543 7.07695 5.2418 7.68516 5.51953 8.16328C6.55664 9.95273 8.04727 11.4434 9.8332 12.477C10.3113 12.7547 10.9195 12.6422 11.2676 12.2168L12.4348 10.7895C12.5156 10.691 12.6492 10.6594 12.7617 10.7086L16.6992 12.3961C16.8223 12.4488 16.8926 12.5824 16.8645 12.7125L16.0207 16.65C15.9926 16.7801 15.8766 16.8715 15.7465 16.8715C15.743 16.8715 15.7395 16.8715 15.7359 16.8715L15.7395 16.875Z" fill="#A5D0F2"/>
</g>
<defs>
<clipPath id="clip0_3_40">
<rect width="18" height="18" fill="white"/>
</clipPath>
</defs>
</svg>
