<svg width="18" height="22" viewBox="0 0 18 22" fill="none" xmlns="http://www.w3.org/2000/svg">
<g id="Frame">
<path id="Vector" d="M4.02911 19.2501H0.297321V6.39817H4.02911V19.2501ZM2.16121 4.64504C0.967902 4.64504 0 3.58801 0 2.31184C8.54116e-09 1.69885 0.227698 1.11096 0.633002 0.67751C1.03831 0.244059 1.58802 0.000549316 2.16121 0.000549316C2.73439 0.000549316 3.2841 0.244059 3.68941 0.67751C4.09471 1.11096 4.32241 1.69885 4.32241 2.31184C4.32241 3.58801 3.35411 4.64504 2.16121 4.64504ZM17.996 19.2501H14.2722V12.9939C14.2722 11.5029 14.2441 9.59074 12.332 9.59074C10.3918 9.59074 10.0945 11.2107 10.0945 12.8864V19.2501H6.3667V6.39817H9.9458V8.15129H9.99804C10.4963 7.14153 11.7133 6.0759 13.5289 6.0759C17.3057 6.0759 18 8.73567 18 12.1904V19.2501H17.996Z" fill="white"/>
</g>
</svg>
